<svg xmlns="http://www.w3.org/2000/svg" width="146.184" height="125.147" viewBox="0 0 146.184 125.147"><defs><style>.a{fill:#feac29;}.b{fill:#fff;}</style></defs><g transform="translate(-1284.299 -178.995)"><path class="a" d="M1357.769,299.627c19.013,0,38.029-.146,57.039.078a11.873,11.873,0,0,0,11.96-12.058c-.082-20.54-.024-41.081-.026-61.622,0-3.862-.011-3.884-3.829-3.884q-33.008-.006-66.015,0a28.029,28.029,0,0,1-3.46-.178,1.912,1.912,0,0,1-1.867-1.884,2,2,0,0,1,2.093-1.979c.962-.065,1.928-.065,2.893-.065q33.152,0,66.306.005c3.87,0,3.965-.017,3.858-3.783-.093-3.338.537-6.712-.834-10-1.926-4.613-5.123-6.98-10.189-6.985-21.327-.022-42.656.009-63.983-.033-2.268,0-4.687.258-4.687-2.25,0-2.242,2.408-2.288,4.763-2.288,7.9,0,13.206.046,22.776.046,13.681,0,26.095.071,39.882,0a15.763,15.763,0,0,1,14.935,9.082,10.118,10.118,0,0,1,1.075,4.741c.005,27.773.063,55.547-.013,83.321-.021,7.636-6.344,13.365-14.913,13.84-2.5.138-5.017.029-7.526.03q-53.277.011-106.552.04c-5.472.007-10.335-1.235-13.839-5.776a14.882,14.882,0,0,1-3.316-9.338c.031-26.807-.017-53.615.045-80.422.02-8.728,6.274-14.736,15.1-15.547a73.3,73.3,0,0,1,7.814-.022c1.62.025,3.339.318,3.4,2.315.058,2.114-1.681,2.259-3.314,2.259-2.7,0-5.405-.021-8.108.018-5.523.08-9.27,3.185-10.356,8.592-.672,3.343-.265,6.73-.319,10.1-.028,1.694,1.012,2.06,2.466,2.048,3.86-.03,7.721-.013,11.581.01,1.455.009,3.281-.079,3.357,1.856.082,2.1-1.813,2.208-3.373,2.234-4.52,0-6.715.008-11,.008-2.249-.058-3.1.877-3.08,3.086,0,19.838-.521,62.274.634,66.8,1.067,4.287,5.5,7.576,10.432,7.582q29.1.035,58.2.009Z" transform="translate(0 0.343)"/><path class="b" d="M1389.391,207.285c.026,1.6-.93,1.808-2.084,1.778a1.532,1.532,0,0,1-1.68-1.791c.025-1.444.956-1.653,2.116-1.623C1388.917,205.68,1389.49,206.233,1389.391,207.285Z" transform="translate(2.559 0.673)"/><path class="a" d="M1390.122,204.717v5.035h-5.036v-5.035h5.036m.843-3.588h-6.722a2.745,2.745,0,0,0-2.746,2.745V210.6a2.745,2.745,0,0,0,2.746,2.745h6.722a2.745,2.745,0,0,0,2.746-2.745v-6.723a2.745,2.745,0,0,0-2.746-2.745Z" transform="translate(2.455 0.559)"/><path class="a" d="M1374.073,209.1h-9.723a2.019,2.019,0,1,0,0,4.037h9.723a2.019,2.019,0,0,0,0-4.037Z" transform="translate(1.971 0.76)"/><path class="a" d="M1411.518,200.978a2.013,2.013,0,0,0-1.428.592l-3.11,3.109-3.109-3.109a2.019,2.019,0,1,0-2.855,2.854l3.11,3.11L1401,210.659a2.019,2.019,0,1,0,2.855,2.855l3.125-3.125,3.126,3.125a2.019,2.019,0,0,0,2.855-2.855l-3.126-3.125,3.109-3.11a2.019,2.019,0,0,0-1.427-3.446Z" transform="translate(2.933 0.555)"/><rect class="a" width="42.81" height="4.038" rx="1.969" transform="translate(1369.023 244.265)"/><rect class="a" width="42.81" height="4.038" rx="1.969" transform="translate(1369.023 258.279)"/><rect class="a" width="23.131" height="4.038" rx="1.969" transform="translate(1369.023 272.294)"/><g transform="translate(1322.738 202.39)"><path class="a" d="M1327.382,204.89a2.515,2.515,0,1,1-2.515,2.515,2.518,2.518,0,0,1,2.515-2.515m0-3.076a5.591,5.591,0,1,0,5.592,5.591,5.591,5.591,0,0,0-5.592-5.591Z" transform="translate(-1321.791 -201.814)"/></g><g transform="translate(1322.738 215.732)"><path class="a" d="M1327.382,217.9a2.515,2.515,0,1,1-2.515,2.515,2.518,2.518,0,0,1,2.515-2.515m0-3.076a5.591,5.591,0,1,0,5.592,5.591,5.591,5.591,0,0,0-5.592-5.591Z" transform="translate(-1321.791 -214.827)"/></g><g transform="translate(1322.738 229.074)"><path class="a" d="M1327.382,230.916a2.515,2.515,0,1,1-2.515,2.515,2.518,2.518,0,0,1,2.515-2.515m0-3.076a5.591,5.591,0,1,0,5.592,5.591,5.591,5.591,0,0,0-5.592-5.591Z" transform="translate(-1321.791 -227.84)"/></g><path class="a" d="M1347.376,236.306c-1.991-3.123-2.736-5.424-2.419-8.669,1.7-17.315-2.685-31.233-13.937-46.249-1.231-1.525-2.068-2.31-2.879-2.393-.812.083-1.649.868-2.88,2.393-11.251,15.016-15.637,28.935-13.937,46.249.319,3.245-.427,5.546-2.417,8.669-2.756,4.324-4.815,7.959-5.547,13.635-.1,2.479.872,3.406,3.391,3.406,1.838,0,3.573-.044,5.788-.044,1.228-.017,2.428-.241,2.47-1.793.041-1.53-1.083-1.871-2.345-1.941q-.433-.023-.868-.023c-4.506,0-4.912-.822-2.975-5.061a38.011,38.011,0,0,1,1.988-3.828c.769-1.277,1.262-2.728,3.342-.938,1.381,1.187,2.773-.1,2.671-1.954a36.951,36.951,0,0,0-.784-5.424c-2.214-10.669-.871-21.027,2.562-31.234.475-1.411,1.4-1.679,2.647-1.676,2.3.008,4.6,0,6.895,0s4.6.006,6.894,0c1.245,0,2.173.266,2.647,1.676,3.434,10.207,4.776,20.566,2.562,31.234a36.968,36.968,0,0,0-.784,5.424c-.1,1.859,1.29,3.141,2.671,1.954,2.08-1.79,2.573-.339,3.343.938a38.029,38.029,0,0,1,1.987,3.828c1.938,4.238,1.532,5.061-2.975,5.061-.289,0-.579.007-.868.023-1.261.07-2.386.411-2.345,1.941.042,1.552,1.241,1.776,2.47,1.793,2.215,0,3.949.044,5.788.044,2.519,0,3.493-.927,3.391-3.406C1352.19,244.265,1350.132,240.629,1347.376,236.306Zm-14.882-40.652c-1.443-.07-2.893-.013-4.34-.01h-.028c-1.447,0-2.9-.059-4.34.01-2.283.11-2.514-1.025-1.544-2.644,1.532-2.555,3.022-4.749,4.822-7.529.363-.572.721-.841,1.077-.85.355.009.712.278,1.075.85,1.8,2.78,3.29,4.975,4.822,7.529C1335.009,194.628,1334.778,195.763,1332.494,195.653Z" transform="translate(0.481 0)"/><path class="a" d="M1336.931,249.082c-.445-1.524-.932-3.208-2.974-2.8-2.33.465-1.545,2.264-1.181,3.715,1.309,5.231.1,9.832-3.129,14.1-.7.918-1.3,1.361-1.876,1.411-.578-.05-1.182-.493-1.877-1.411-3.226-4.264-4.438-8.865-3.128-14.1.363-1.451,1.148-3.249-1.181-3.715-2.043-.407-2.529,1.277-2.975,2.8-2.034,6.951,1.438,16.8,7.328,20.869a2.731,2.731,0,0,0,3.668,0C1335.492,265.881,1338.965,256.033,1336.931,249.082Z" transform="translate(0.852 1.698)"/><rect class="a" width="4.442" height="22.149" rx="2.166" transform="translate(1308.85 260.989)"/><rect class="a" width="4.442" height="31.559" rx="2.166" transform="translate(1343.779 260.989)"/><rect class="a" width="4.442" height="12.217" rx="2.166" transform="translate(1331.974 276.447)"/><rect class="a" width="4.442" height="18.238" rx="2.166" transform="translate(1320.438 276.447)"/></g></svg>