<svg xmlns="http://www.w3.org/2000/svg" width="306.431" height="65" viewBox="0 0 306.431 65"><defs><style>.a{fill:#fff;}.b{fill:#feac1d;}.c{fill:#fe6e4d;}.d{fill:#55a1bd;}.e{fill:#aabc2f;}.f{fill:#abbd32;}.g{fill:#4b8a9f;}.h{fill:#8a9c1c;}.i{fill:#d6603d;}.j{fill:#ec8c12;}.k{fill:#56a1bd;}.l{fill:#fead1e;}</style></defs><g transform="translate(513.807 41.873)"><path class="a" d="M-90.261,17.669a9.541,9.541,0,0,1-2.064,5.377,15.268,15.268,0,0,1-12.838,7.111c-4.656.223-8.587-1.573-12.53-3.524-1.483-.734-1.639-1.607-.706-2.935.255-.363.619-.659.841-1.039.422-.722.6-1.864,1.2-2.143,1.067-.493,2.145.393,2.994.994,3.244,2.293,6.926,1.757,10.489,1.627,2.3-.083,6.018-3.6,6.238-6.009.232-2.551,1.317-5.028.767-7.642a2.749,2.749,0,0,0-.409-.725c-.164.162-.388.3-.485.492-1.433,2.869-3.987,4-6.912,5.075a10.963,10.963,0,0,1-8.1-.365c-3.924-1.51-7.126-4.855-7.871-8.349-1.809-1.821-1.476-4.132-1.37-6.329.118-2.441-.335-4.859.6-7.334,1.739-4.592,4.555-8.008,9.19-9.861a5.311,5.311,0,0,1,1.608-.323c.812-.052,1.649.1,2.443-.032,3.648-.6,6.4,1.309,9.175,3.138.393.259.51.921.766,1.39.053.1.21.248.235.233.159-.092.414-.22.419-.344.035-.919-.048-1.847.038-2.759a1.6,1.6,0,0,1,1.734-1.642c1.748.007,3.5,0,5.244,0V14.906c-.233.271-.619.517-.668.817A12.1,12.1,0,0,0-90.261,17.669ZM-96.573-1.952c.262-4.239-1.1-7.523-4.745-9.567-3.491-1.956-7.134-1.442-9.5.76A11.944,11.944,0,0,0-114.4-4.605a10.965,10.965,0,0,0,.672,7A7.947,7.947,0,0,0-109,7.433c1.751.677,3.348.349,5,.549a4.4,4.4,0,0,0,3.618-1.36C-97.8,4.234-96.02,1.537-96.573-1.952Z" transform="translate(-117.814 -7.049)"/><path class="b" d="M-450.041-41.182c2.506-.193,4.437,1.338,6.261,2.53a16.657,16.657,0,0,1,6.285,8.412c1.082,2.94.787,6.6.2,10.142a13.269,13.269,0,0,1-3.657,6.806,3.372,3.372,0,0,0-.694,2.5c-.747.106-1.61-.316-2.211.458q-1.7,2.185-3.386,4.377c-1.254-.183-1.408-1.338-1.79-2.169a7.688,7.688,0,0,1-.928-3.373,7.9,7.9,0,0,1,1.213-3.6A47.852,47.852,0,0,1-445.6-19c.459-.589,1.147-1.322,1.089-1.928-.184-1.895.93-3.654.159-5.671a15.142,15.142,0,0,0-2.246-4.591c-2.183-2.583-7.752-4.972-12.491-2.416a12.535,12.535,0,0,1-2.144.708c-1.352-1.219-2.673-2.474-4.075-3.634a4.606,4.606,0,0,0-1.522-.51c.8-.673,1.5-1.676,2.415-1.951,2.047-.612,3.6-2.528,5.981-2.193.688-.263,1.77.64,2.1-.691h4.2C-451.812-40.542-450.729-41.445-450.041-41.182Z" transform="translate(-14.093)"/><path class="c" d="M-508.91-11.881c-2.2-2.1-3.892-4.476-4.2-7.6-.267-.68.648-1.749-.7-2.073V-25.7c1.348-.324.433-1.392.7-2.072a7.314,7.314,0,0,1,.406-2.224,16.748,16.748,0,0,1,4.949-6.833c2.953-2.25,6.1-4.133,10.036-4.067h3.5c3-.146,5.462,1.231,7.949,2.632,1.311.738,2.233,2.169,3.944,2.2.073.648,0,1.8.243,1.865,2.094.6,2.757,2.9,4.654,3.66a3.4,3.4,0,0,1-3.1,2.033,9.841,9.841,0,0,1-8.313-2.548,11.155,11.155,0,0,0-11.575-2c-2.914,1.187-5.489,5.181-5.74,8.251a12.874,12.874,0,0,0,2.148,8.074Z" transform="translate(0 -0.292)"/><path class="a" d="M-77.051,31.935a12.1,12.1,0,0,1,.031-1.946c.049-.3.435-.546.668-.817v2.763Z" transform="translate(-131.025 -21.314)"/><path class="a" d="M-372.833,12.12A25.61,25.61,0,0,1-388.72,5.888c-1.331-1.127-1.233-1.2-.226-2.63.937-1.333,1.786-2.727,2.759-4.032a1.182,1.182,0,0,1,1.128,0c2.27,2.575,5.283,3.835,8.461,4.858a16.333,16.333,0,0,0,7.467.2c1.247-.185,2.455-1.533,3.37-2.611.484-.569.3-1.689.424-2.559.333-2.3-.682-3.629-2.774-4.717-2.829-1.471-5.9-2.078-8.875-3-3.641-1.126-7.08-2.539-9.544-5.5a7.494,7.494,0,0,1-1.7-3.748c-.481-4.579-.655-9.126,3.354-12.651,2.029-1.784,3.958-3.36,6.839-3.758,3.94-.545,3.9-.654,7.472.02,1.295.245,2.651.493,3.906.6,2.352.2,3.934,1.839,6.028,2.4.39.1.656.632,1,.941a1.529,1.529,0,0,1,.211,2.363c-.609.774-1.151,1.6-1.737,2.39-1.338,1.8-1.432,1.943-3.352.745A18.112,18.112,0,0,0-375.7-27.3c-3.5.232-6.375,4.179-4.957,7.184a6.759,6.759,0,0,0,2.73,2.465,27.135,27.135,0,0,0,7.556,2.786c3.8.917,7.3,2.328,10.032,5.258a8.481,8.481,0,0,1,2.711,6.492,27.106,27.106,0,0,0,0,3.447,8,8,0,0,1-2.724,6.478c-1.516,1.483-2.893,3.1-4.992,3.919A17.812,17.812,0,0,1-372.833,12.12Z" transform="translate(-37.23 -2.15)"/><path class="a" d="M-331.906-11.806q0-10.693,0-21.387c0-1.735.02-1.764,1.554-1.762,1.732,0,3.464.064,5.2.1.081,1.692.212,3.383.231,5.076.037,3.334.007,6.669.021,10a1.83,1.83,0,0,0,.23.591,2.076,2.076,0,0,0,.489-.276c1.751-1.741,4.114-2.379,6.261-3.4a2.085,2.085,0,0,1,.9-.337c2.586.181,5.237-.538,7.755.657,1.994.946,3.823,1.873,4.934,4.019A20.023,20.023,0,0,1-301.8-8.853c-.087,6.323-.034,12.648-.013,18.972,0,.8-.089,1.29-1.1,1.212-1.938-.148-3.884-.2-5.826-.286-.026-1.714-.07-3.429-.074-5.143-.01-4.829-.021-9.659,0-14.488a9.186,9.186,0,0,0-1.931-5.753c-2.473-3.172-6.5-3.724-10.917-.633-2.316,1.62-3.178,4.214-3.222,6.924-.1,5.863-.024,11.728-.033,17.593,0,1.735-.02,1.764-1.554,1.762-1.732,0-3.465-.064-5.2-.1-.081-1.692-.223-3.383-.231-5.075C-331.924.154-331.906-5.826-331.906-11.806Z" transform="translate(-54.571 -2.075)"/><path class="a" d="M-262.05,2.5c-3.5,0-6.994-.009-10.491,0-1.4,0-1.572.205-1.387,1.577a3.554,3.554,0,0,0,.39,1.217,9.7,9.7,0,0,0,6.267,4.948c2.583.748,4.8.223,7.151-.184a6.54,6.54,0,0,0,3.349-2.026c1.086-1.067,1.711-1,2.858.086.582.549,1.387,1.079,1.577,1.757.163.583,1.149,1.1,0,2.176A17.159,17.159,0,0,1-266.726,16.9a15.714,15.714,0,0,1-12.423-8.317,12.3,12.3,0,0,1-1.8-5.818c.044-2.185,0-4.373.013-6.559a12.48,12.48,0,0,1,3.748-8.826c2.258-2.341,4.628-4.343,7.969-5.223,1.632-.43,3.158-.183,4.72-.377,4.161-.514,7.746,1.326,10.592,3.774,2.582,2.22,4.655,5.281,4.467,9.149-.122,2.512-.088,5.033-.125,7.55-2.531.079-5.062.177-7.593.232C-258.786,2.526-260.418,2.5-262.05,2.5Zm-3.32-5.526c2.555,0,5.11.009,7.665,0,1.9-.009,2.568-.7,1.91-2.379-.7-1.784-1.313-3.863-2.934-4.945-3.111-2.077-6.546-2.2-10.165-1.007-3.524,1.157-4.718,3.947-5.729,6.969-.319.952.084,1.352,1.24,1.359C-270.712-3.017-268.041-3.029-265.37-3.029Z" transform="translate(-69.861 -7.072)"/><path class="a" d="M-169-.843c0-5.4.015-10.8-.016-16.206,0-.85.176-1.235,1.138-1.184,1.62.086,3.246.049,4.87.064.1,1.568.2,3.136.311,4.7a3.014,3.014,0,0,0,.177.615,3.625,3.625,0,0,0,.735-.409c1.806-1.648,3.242-3.766,5.845-4.4.3-.073.546-.534.812-.529,2.826.048,5.73-.476,8.433.683a10.539,10.539,0,0,1,6.347,7.079,23.329,23.329,0,0,1,.773,6.6c-.118,6.319-.053,12.642-.027,18.963,0,.825-.128,1.273-1.119,1.2-1.936-.148-3.879-.2-5.82-.293-.023-1.714-.064-3.429-.067-5.143q-.014-7.586,0-15.172a8.618,8.618,0,0,0-1.787-5.158,3.732,3.732,0,0,0-2.372-1.809c-1.6-.214-3.025-1.221-4.856-.568a10.066,10.066,0,0,0-7.069,9.381c-.046,5.862-.026,11.723,0,17.585,0,.858-.19,1.229-1.143,1.179-1.619-.085-3.245-.051-4.868-.067-.1-1.568-.272-3.135-.288-4.7C-169.025,7.432-169,3.295-169-.843Z" transform="translate(-103.442 -7.083)"/><path class="a" d="M-217.372-1.46c0,4.135-.012,8.27.011,12.4,0,.669-.09,1.085-.906,1.051-1.726-.071-3.454-.094-5.181-.136-.073-1.578-.206-3.156-.211-4.734-.023-7.006-.006-14.013-.013-21.019,0-1.714-.02-1.714-1.573-1.747-.116,0-.233,0-.349,0l-4.139-.116c-.078-1.462-.137-2.924-.24-4.384-.05-.692.127-1.1.92-1.028a5.661,5.661,0,0,0,.7,0q2.24-.068,4.479-.14c.069-1.464.032-2.943.232-4.391a9.575,9.575,0,0,1,2.47-5.875,26.937,26.937,0,0,1,2.238-2.172,4.648,4.648,0,0,1,3.314-1.249,14.5,14.5,0,0,0,2.441,0,8.943,8.943,0,0,1,5.911,1.814c1.478.977,1.281,1.411.6,2.494-.625,1-.934,2.51-1.809,2.93-.675.324-2.119-.538-3.02-1.158a1.965,1.965,0,0,0-2.437-.2c-1.091.6-2.268,1.111-2.7,2.307a14.731,14.731,0,0,0-.713,3.494c-.149,1.42.472,2.086,1.911,2.129,1.743.052,3.49.035,5.234,0,.788-.015,1.347.037,1.243,1.07-.147,1.452-.186,2.915-.272,4.373-1.383.031-2.767.055-4.15.1-1.261.036-2.969-.374-3.653.269-.661.622-.317,2.337-.328,3.572C-217.39-8.352-217.372-4.906-217.372-1.46Z" transform="translate(-85.151 -2.057)"/><path class="d" d="M-442.645,5.49a12.877,12.877,0,0,1,3.283,4.985,16.811,16.811,0,0,1-1.086,13.933c-2.635,4.719-6.543,7.451-11.873,8.805a20.218,20.218,0,0,1-4.957.573c-.517,0-1.033-.383-1.555-.4a15.158,15.158,0,0,1-7.013-2.374c-1.415-.8-2.433-2.23-4.082-2.728-.083-.427-.036-1.133-.267-1.235-2.053-.917-3.333-2.6-4.631-4.29,2.286-1.968,4.671-2.754,7.725-1.461a23.015,23.015,0,0,1,4.182,2.488c1.245.864,2.493,2.119,3.87,2.317,2.417.348,5.1.6,7.316-.65a12.071,12.071,0,0,0,4.949-4.9c1.218-2.319.357-4.656.624-6.964.2-1.726-1.471-2.588-2.08-3.953a4.589,4.589,0,0,0,1.522-.51C-445.318,7.964-444,6.709-442.645,5.49Z" transform="translate(-11.694 -14.209)"/><path class="e" d="M-483.48,27c-1.819,2.577-4.535,3.584-7.494,4.138a16.8,16.8,0,0,1-4.248.643c-4.479-.356-8.727-1.43-11.88-4.963-.981-1.1-2.043-2.131-2.95-3.284-2.879-3.655-3.321-8-2.691-12.285a13.022,13.022,0,0,1,3.52-7.489A9.84,9.84,0,0,0-507.267.754a4.589,4.589,0,0,0,1.523-.51c1.4-1.16,2.723-2.415,4.075-3.634,1.995.715,1.734,2.634,2.032,4.1A5.675,5.675,0,0,1-501,5.264c-1.144,1.483-2.754,2.784-3.384,4.451-1.5,3.982-1.379,8.9,2.348,11.813a11.717,11.717,0,0,0,6.87,2.8c2.668.149,4.6-1.217,6.786-2.157Z" transform="translate(-0.244 -11.545)"/><path class="a" d="M-183.991-.585c0,5.173-.018,10.346.017,15.519.006.929-.053,1.5-1.254,1.42-1.839-.129-3.69-.106-5.535-.147-.075-1.809-.21-3.617-.214-5.426-.022-9.2,0-18.392-.027-27.589,0-.928.053-1.5,1.253-1.42,1.84.129,3.69.106,5.536.147.075,1.809.2,3.617.214,5.426C-183.968-8.631-183.991-4.608-183.991-.585Z" transform="translate(-96.845 -7.091)"/><path class="f" d="M-183.583-31.655a4.127,4.127,0,0,1-4.353,3.991,4.11,4.11,0,0,1-4.042-4.3c.026-2.428,1.76-4.018,4.353-3.991A3.935,3.935,0,0,1-183.583-31.655Z" transform="translate(-96.552 -1.776)"/><path class="g" d="M-431.851,4.593c-1.352,1.219-2.673,2.474-4.075,3.634a4.59,4.59,0,0,1-1.522.51l-1.4-1.382q1.693-2.189,3.387-4.377c.6-.774,1.464-.352,2.211-.458A1.7,1.7,0,0,1-431.851,4.593Z" transform="translate(-22.489 -13.312)"/><path class="h" d="M-472.929,37.066l-4.9-4.835,2.1-2.072c1.3,1.686,2.578,3.373,4.631,4.29.23.1.184.808.267,1.235Z" transform="translate(-10.795 -21.61)"/><path class="i" d="M-499.815-4.278c-1.352,1.219-2.673,2.474-4.075,3.634a4.589,4.589,0,0,1-1.522.51l-1.4-1.381,4.9-4.835c.341.221.7.65,1.021.629C-499.67-5.8-499.8-5.024-499.815-4.278Z" transform="translate(-2.099 -10.657)"/><path class="j" d="M-461.835-30.821l-2.1,2.072c-1.9-.763-2.561-3.061-4.654-3.66-.243-.069-.169-1.217-.243-1.865l1.4-.691a4.605,4.605,0,0,1,1.522.51C-464.507-33.3-463.186-32.041-461.835-30.821Z" transform="translate(-13.493 -2.072)"/><path class="k" d="M-451,23.794c-1.9.278-3.431.048-4.679-1.53-1.037-1.312-2.32-2.446-2.149-4.269a6.731,6.731,0,0,1,6.695-6.535c2.758-.159,6.592,3.542,6.5,6.369a5.509,5.509,0,0,1-1.5,3.818C-447.523,23.023-448.787,24.566-451,23.794Z" transform="translate(-16.791 -15.999)"/><path class="e" d="M-489.647,24.824c-4.235.258-5.485-1.459-7.067-5.864-.2-.552.394-1.38.616-2.082.75-2.374,3.984-4.644,6.389-4.484a6.745,6.745,0,0,1,6.188,6.039,3.884,3.884,0,0,1-.64,2.828C-485.579,23.183-486.776,25.246-489.647,24.824Z" transform="translate(-5.116 -16.278)"/><path class="c" d="M-496.844-19.1a3.913,3.913,0,0,1,1.615-3.883c1.413-1.156,2.688-2.216,4.692-2.159a6.489,6.489,0,0,1,6.287,6.7c-.056,2.994-3.163,5.745-6.51,5.763C-494.779-12.657-496.836-14.727-496.844-19.1Z" transform="translate(-5.07 -5.02)"/><path class="l" d="M-452.113-13.655a4.468,4.468,0,0,1-4.829-1.869,10.276,10.276,0,0,1-1.894-4.407c.08-2.484,3.923-6.236,6.585-6.065a7.589,7.589,0,0,1,4.887,2.53,6,6,0,0,1,1.707,4.116c.039,1.869-1.258,3.363-2.652,4.765C-449.522-13.363-450.824-13.768-452.113-13.655Z" transform="translate(-16.492 -4.762)"/></g></svg>