<svg xmlns="http://www.w3.org/2000/svg" width="131.336" height="151.001" viewBox="0 0 131.336 151.001"><defs><style>.a{fill:#feac29;}.b{fill:none;}</style></defs><g transform="translate(-10.754 -0.002)"><path class="a" d="M138.094,28.93c-5.234,5.665-10.55,6.287-18.158,6.287-6.242,0-11.373-.044-17.06-.048-4.288,0-4.943-.665-4.943-1.982,0-.864,1.171-1.414,2.768-1.568,3.121,0,5.382-.078,8.076-.081,4.687,0,4.692-.006,4.7-4.829.009-7.383-.01-14.766.022-22.148.017-3.98.541-4.427,4.485-4.51,4.9-.1,9.867-.271,14.358,2.027,6.552,3.354,9.635,9.079,9.671,16.264.115,23.045.059,46.091.067,69.136,0,4.889-.031,9.777.006,14.666a17.343,17.343,0,0,1-16.881,17.713c-13.467.181-26.937.129-40.4.149-13.869.021-27.738.081-41.6-.047-2.918-.027-3.775.941-3.717,3.778.159,7.778,0,15.563.1,23.343.033,2.726-.775,4.12-3.776,3.9-2.679-.2-5.385-.01-8.078-.059a16.876,16.876,0,0,1-16.877-16.647c-.112-28.632-.174-57.265.075-85.9.1-11.1,9.454-18.357,21.511-16.744a2.049,2.049,0,0,1,1.8,1.62c.108,1.333-1.185,1.751-1.974,1.817a27.417,27.417,0,0,1-2.965.125c-9.07.071-14.693,5.618-14.713,14.753-.047,20.85-.006,41.7,0,62.552v9.439c1.029-.7,1.592-1.014,2.068-1.426,4.083-3.516,8.9-4.437,14.146-4.423,30.829.081,61.659.026,92.489.1,5.627.014,10.251-1.8,13.042-6.77a15.29,15.29,0,0,0,2-7.053c.155-23.643.111-47.288.11-70.932A25.117,25.117,0,0,0,138.094,28.93ZM117.317,17.469h.015V24.04c.008,8.133.016,8.206,8.2,7.408a13.5,13.5,0,0,0,11.623-8.128,12.963,12.963,0,0,0-1.693-14.061c-3.972-5.1-9.619-5.815-15.62-5.5-1.905.1-2.63.692-2.559,2.658C117.409,10.1,117.317,13.785,117.317,17.469ZM35.664,133.422h.016c0-1.89-.008-2.945-.008-5.669,0-8.747.656-7.648-8.266-7.648a13,13,0,0,0-11.978,8.774c-1.631,5.4-.815,10.352,3.359,14.564,4.5,4.538,10.121,3.893,15.654,3.6.447-.023,1.169-.347,1.169-2.284C35.61,139.993,35.664,138.143,35.664,133.422Z"/><path class="a" d="M75.95,35.806c2.69,0,5.38.035,8.069-.011,2.2-.038,3.068,1.072,2.924,3.156C86.162,50.33,77.406,59.86,67,61.036,55.043,62.389,46.51,57.88,41.4,47.821c-5.929-11.675.1-27.453,12.369-32.072a47.518,47.518,0,0,1,7.782-1.816c2.271-.437,3.326.607,3.3,2.949-.049,5.28.055,10.56-.031,15.839-.036,2.228.573,3.313,3.057,3.121,2.674-.207,5.377-.047,8.066-.047Zm-3.368,3.625c-2.69,0-5.385-.111-8.067.032-2.487.132-3.4-.945-3.365-3.331.067-5.08.04-10.16.008-15.24-.019-3.117-.847-3.68-3.8-2.711-10.818,3.546-16.349,13.854-13.6,25.044,1.7,6.931,9.266,14.906,20.452,14.438,8.509-.355,16.854-7.44,18.533-15.822.389-1.941-.229-2.5-2.092-2.434C77.965,39.507,75.272,39.431,72.582,39.431Z"/><path class="a" d="M81.685,31.155c-2.89,0-5.781-.035-8.671.011-2.441.038-3.722-.974-3.7-3.54.046-5.88.029-11.76.02-17.639,0-2.268,1.05-3.148,3.342-3.085C83.14,7.188,92.848,15.652,94,28c.207,2.224-1.059,3.092-3.041,3.126-3.089.054-6.18.014-9.269.014Zm-.24-3.711c1.993,0,3.986-.034,5.977.01,1.971.043,2.758-.729,2.2-2.741-2-7.254-6.822-11.673-13.876-13.834-1.532-.469-2.538-.022-2.527,1.807.014,2.191-.02,4.383-.022,6.574,0,8.18,0,8.18,8.248,8.185Z"/><rect class="a" width="25.922" height="3.73" rx="1.865" transform="translate(61.109 127.396)"/><rect class="a" width="25.922" height="3.73" rx="1.865" transform="translate(61.109 135.181)"/><rect class="a" width="25.922" height="3.73" rx="1.865" transform="translate(61.109 142.966)"/><circle class="a" cx="1.85" cy="1.85" r="1.85" transform="translate(50.599 127.396)"/><circle class="a" cx="1.85" cy="1.85" r="1.85" transform="translate(50.599 135.196)"/><circle class="a" cx="1.85" cy="1.85" r="1.85" transform="translate(50.599 142.981)"/><rect class="b" width="5.203" height="0.634" transform="translate(54.21 110.324)"/><rect class="b" width="5.203" height="0.634" transform="translate(93.469 110.324)"/><rect class="b" width="5.203" height="0.634" transform="translate(73.651 110.324)"/><rect class="b" width="5.203" height="0.634" transform="translate(34.732 110.324)"/><rect class="b" width="5.203" height="0.634" transform="translate(113.15 110.324)"/><path class="a" d="M40.359,87.49H34.308a3.576,3.576,0,0,0-3.576,3.576v19.258h4V91.49h5.2v18.834h4V91.066A3.576,3.576,0,0,0,40.359,87.49Z"/><path class="a" d="M59.838,70.05H53.786a3.577,3.577,0,0,0-3.576,3.577v36.7h4V74.05h5.2v36.274h4v-36.7A3.577,3.577,0,0,0,59.838,70.05Z"/><path class="a" d="M79.278,77.883H73.227a3.576,3.576,0,0,0-3.576,3.576v28.865h4V81.883h5.2v28.441h4V81.459A3.576,3.576,0,0,0,79.278,77.883Z"/><path class="a" d="M99.1,52.013H93.045a3.576,3.576,0,0,0-3.576,3.576v54.735h4V56.013h5.2v54.311h4V55.589A3.576,3.576,0,0,0,99.1,52.013Z"/><path class="a" d="M113.15,70.3h5.2v40.025h4V69.875a3.576,3.576,0,0,0-3.576-3.576h-6.051a3.576,3.576,0,0,0-3.576,3.576v40.449h4Z"/></g></svg>